<svg width="204" height="48" viewBox="0 0 204 48" fill="none" xmlns="http://www.w3.org/2000/svg">
<g clip-path="url(#clip0_329:108)">
<path d="M58.6021 32.1734C57.382 31.4979 56.3891 30.4764 55.7485 29.2376C55.0566 27.8626 54.7126 26.3389 54.7464 24.8C54.715 23.2398 55.0765 21.6968 55.7977 20.313C56.4687 19.0424 57.4944 17.9939 58.7499 17.2951C60.0886 16.5647 61.5949 16.1967 63.1196 16.2274C64.0051 16.2299 64.8862 16.3531 65.7385 16.5934C66.556 16.8129 67.3371 17.1505 68.0571 17.5955C68.7674 18.0649 69.1233 18.6539 69.1249 19.3626C69.1454 19.7858 69.0221 20.2034 68.7752 20.5477C68.6694 20.6905 68.5308 20.8058 68.3711 20.8839C68.2114 20.9619 68.0353 21.0003 67.8576 20.9959C67.5932 20.9929 67.3321 20.9362 67.0902 20.8293C66.8141 20.7144 66.546 20.5811 66.2876 20.4304C65.8393 20.161 65.3682 19.9317 64.8796 19.7451C64.3879 19.5709 63.8688 19.4866 63.3472 19.4964C61.9673 19.4964 60.905 19.9469 60.1603 20.8481C59.4156 21.7492 59.0464 23.043 59.0527 24.7296C59.0527 26.3957 59.425 27.6794 60.1697 28.5805C60.9144 29.4817 61.9767 29.9323 63.3566 29.9323C63.8623 29.9415 64.3652 29.8563 64.8397 29.6812C65.3377 29.4858 65.8222 29.2577 66.29 28.9983C66.5685 28.828 66.8587 28.6774 67.1583 28.5477C67.3911 28.4505 67.6406 28.3995 67.8928 28.3975C68.0694 28.3989 68.2432 28.4422 68.3998 28.5238C68.5565 28.6054 68.6916 28.723 68.794 28.8669C69.0469 29.2044 69.1761 29.6187 69.16 30.0402C69.1682 30.3848 69.0813 30.725 68.9089 31.0235C68.7038 31.3382 68.423 31.5964 68.0923 31.7745C67.3493 32.2434 66.54 32.5978 65.6916 32.8258C64.7795 33.0812 63.8367 33.2099 62.8896 33.2083C61.3951 33.239 59.9181 32.8824 58.6021 32.1734Z" fill="white"/>
<path d="M87.2062 22.9329V31.1464C87.2212 31.4156 87.1801 31.6849 87.0856 31.9374C86.991 32.1899 86.8451 32.42 86.6571 32.6131C86.452 32.7983 86.2122 32.941 85.9515 33.0328C85.6909 33.1247 85.4146 33.1639 85.1388 33.1482C84.5768 33.1781 84.0256 32.9859 83.604 32.6131C83.4109 32.4228 83.2604 32.1936 83.1625 31.9408C83.0646 31.6879 83.0215 31.4172 83.0361 31.1464V22.9329C83.0361 21.7548 82.8014 20.8943 82.3321 20.3515C81.8627 19.8086 81.1118 19.5364 80.0792 19.5348C78.8777 19.5348 77.9163 19.9126 77.1951 20.6683C76.4699 21.4263 76.1109 22.4377 76.1109 23.7049V31.1441C76.1254 31.4148 76.0824 31.6856 75.9845 31.9384C75.8866 32.1913 75.7361 32.4204 75.543 32.6108C75.1214 32.9836 74.5702 33.1757 74.0082 33.1458C73.7323 33.1615 73.4561 33.1223 73.1954 33.0305C72.9348 32.9386 72.695 32.796 72.4899 32.6108C72.3018 32.4176 72.1559 32.1875 72.0614 31.935C71.9669 31.6826 71.9258 31.4132 71.9407 31.1441V11.1969C71.9295 10.934 71.9758 10.6718 72.0763 10.4286C72.1768 10.1854 72.3292 9.96708 72.5227 9.78882C72.9513 9.44938 73.4805 9.26195 74.0272 9.25601C74.5739 9.25006 75.1071 9.42593 75.543 9.75597C75.7307 9.92809 75.8781 10.1396 75.9747 10.3752C76.0712 10.6109 76.1145 10.8651 76.1015 11.1194V18.8918C76.6412 18.0362 77.4093 17.3486 78.3192 16.9065C79.3027 16.438 80.3816 16.2043 81.4708 16.2236C85.2944 16.2267 87.2062 18.4631 87.2062 22.9329Z" fill="white"/>
<path d="M103.57 17.9247C104.665 19.0464 105.213 20.7532 105.213 23.0452V31.1837C105.226 31.4424 105.185 31.7011 105.094 31.9434C105.002 32.1858 104.861 32.4065 104.68 32.5917C104.482 32.771 104.25 32.9091 103.998 32.9981C103.745 33.0872 103.478 33.1253 103.211 33.1104C102.953 33.1188 102.695 33.0759 102.453 32.9841C102.212 32.8922 101.991 32.7533 101.803 32.5753C101.618 32.3921 101.474 32.1721 101.379 31.9295C101.285 31.687 101.242 31.4273 101.254 31.1673V30.4327C100.889 31.2837 100.264 31.9969 99.4681 32.4697C98.6148 32.9686 97.6402 33.222 96.652 33.2019C95.6239 33.215 94.6071 32.9867 93.6834 32.5354C92.8274 32.1243 92.0979 31.4905 91.5713 30.7003C91.0618 29.9287 90.7945 29.0223 90.804 28.0977C90.804 26.8978 91.1098 25.9528 91.7215 25.2629C92.3332 24.5729 93.3282 24.0723 94.7066 23.761C96.0864 23.4481 97.9881 23.2916 100.411 23.2916H101.247V22.5242C101.247 21.4291 101.012 20.6343 100.543 20.14C100.074 19.6456 99.3171 19.3953 98.2736 19.389C97.6081 19.3927 96.9463 19.4883 96.307 19.673C95.6452 19.8685 94.8552 20.1462 93.9368 20.5061C93.3572 20.7971 92.9348 20.9402 92.6673 20.9402C92.4814 20.9456 92.2966 20.9095 92.1265 20.8344C91.9564 20.7593 91.8052 20.6471 91.684 20.5061C91.4177 20.1901 91.2803 19.7854 91.2991 19.3726C91.2914 19.0236 91.3904 18.6805 91.5831 18.3893C91.8317 18.0595 92.1529 17.7913 92.5217 17.6055C93.4008 17.1473 94.3378 16.8102 95.3073 16.6034C96.3527 16.3632 97.4216 16.2404 98.4942 16.2374C100.775 16.2311 102.467 16.7935 103.57 17.9247ZM100.2 29.0998C100.916 28.3129 101.293 27.2762 101.252 26.2133V25.5093H100.651C99.4905 25.4882 98.3303 25.5549 97.18 25.7088C96.3586 25.8425 95.772 26.0748 95.4129 26.4128C95.2311 26.5895 95.0892 26.8029 94.9965 27.0388C94.9038 27.2748 94.8626 27.5278 94.8755 27.7809C94.8655 28.11 94.9273 28.4372 95.0566 28.7399C95.1859 29.0427 95.3795 29.3136 95.6241 29.5339C96.1307 29.9909 96.7937 30.2354 97.4757 30.2168C97.984 30.2337 98.4901 30.1417 98.96 29.947C99.4299 29.7523 99.8527 29.4595 100.2 29.0881V29.0998Z" fill="white"/>
<path d="M109.723 12.7072C109.503 12.5009 109.33 12.2499 109.215 11.971C109.1 11.6921 109.046 11.3918 109.057 11.0903C109.044 10.7907 109.097 10.492 109.212 10.2151C109.328 9.93823 109.502 9.68988 109.723 9.4875C110.24 9.09763 110.869 8.88672 111.516 8.88672C112.163 8.88672 112.793 9.09763 113.309 9.4875C113.535 9.68699 113.714 9.93436 113.832 10.2116C113.951 10.4889 114.006 10.789 113.994 11.0903C114.006 11.3921 113.952 11.6928 113.837 11.9719C113.721 12.251 113.547 12.5018 113.325 12.7072C112.81 13.1074 112.177 13.3246 111.524 13.3246C110.872 13.3246 110.238 13.1074 109.723 12.7072ZM110.04 32.6216C109.84 32.4324 109.684 32.2014 109.583 31.9451C109.482 31.6888 109.438 31.4134 109.456 31.1384V18.2619C109.437 17.9889 109.48 17.7153 109.581 17.4611C109.682 17.2068 109.839 16.9785 110.04 16.7929C110.457 16.4498 110.986 16.272 111.525 16.293C112.069 16.2737 112.602 16.4512 113.025 16.7929C113.23 16.9757 113.391 17.2032 113.496 17.4578C113.6 17.7124 113.644 17.9875 113.626 18.2619V31.1384C113.644 31.4149 113.599 31.6918 113.495 31.9486C113.391 32.2054 113.23 32.4354 113.025 32.6216C112.607 32.974 112.072 33.1588 111.525 33.1402C110.983 33.1603 110.452 32.9751 110.04 32.6216Z" fill="white"/>
<path d="M131.773 17.8964C132.731 19.0072 133.209 20.6859 133.209 22.9325V31.1461C133.224 31.4154 133.182 31.6848 133.087 31.9372C132.992 32.1897 132.846 32.4197 132.658 32.6128C132.453 32.7982 132.213 32.941 131.952 33.0328C131.692 33.1247 131.415 33.1638 131.139 33.1478C130.578 33.1777 130.026 32.9855 129.605 32.6128C129.412 32.4222 129.262 32.1929 129.164 31.9401C129.067 31.6873 129.024 31.4166 129.039 31.1461V23.1672C129.039 21.8999 128.8 20.9777 128.321 20.4004C127.842 19.8231 127.092 19.5337 126.071 19.5321C124.869 19.5321 123.907 19.9099 123.184 20.6656C122.461 21.4212 122.099 22.4326 122.098 23.6999V31.139C122.112 31.4098 122.069 31.6805 121.971 31.9334C121.873 32.1862 121.723 32.4154 121.53 32.6057C121.108 32.9785 120.557 33.1707 119.995 33.1408C119.719 33.1567 119.443 33.1175 119.183 33.0257C118.923 32.9338 118.683 32.7911 118.479 32.6057C118.29 32.413 118.143 32.183 118.048 31.9305C117.954 31.678 117.912 31.4084 117.927 31.139V18.232C117.915 17.9703 117.96 17.709 118.058 17.4661C118.156 17.2231 118.305 17.0041 118.495 16.824C118.917 16.4512 119.468 16.259 120.03 16.2889C120.549 16.2718 121.053 16.4569 121.438 16.8052C121.62 16.9788 121.763 17.1891 121.858 17.4221C121.952 17.6551 121.997 17.9056 121.987 18.1569V19.0581C122.524 18.1613 123.298 17.4304 124.224 16.946C125.204 16.4469 126.292 16.1956 127.392 16.2138C129.357 16.2232 130.817 16.7841 131.773 17.8964Z" fill="white"/>
<path d="M150.57 17.2952C151.702 18.0339 152.597 19.0812 153.152 20.3131C153.787 21.7222 154.1 23.2549 154.069 24.8001C154.104 26.3297 153.79 27.8472 153.152 29.2378C152.608 30.4496 151.717 31.4732 150.592 32.1794C149.467 32.8857 148.158 33.2429 146.83 33.2061C145.751 33.2246 144.684 32.9729 143.727 32.4739C142.846 32.0116 142.116 31.3043 141.627 30.4369V37.2425C141.64 37.4983 141.595 37.7538 141.497 37.9904C141.399 38.227 141.249 38.4389 141.059 38.6106C140.639 38.9589 140.103 39.1372 139.557 39.1105C139.002 39.1343 138.459 38.9435 138.041 38.5777C137.847 38.3997 137.694 38.1815 137.594 37.9383C137.493 37.6951 137.446 37.4328 137.457 37.1697V18.2551C137.444 17.991 137.486 17.7272 137.58 17.4803C137.675 17.2334 137.82 17.009 138.006 16.8212C138.206 16.638 138.44 16.4963 138.695 16.4045C138.95 16.3126 139.221 16.2724 139.492 16.2861C140.043 16.2614 140.582 16.4535 140.993 16.8212C141.184 17.0066 141.333 17.2302 141.43 17.4774C141.528 17.7246 141.572 17.9896 141.559 18.2551V19.0975C142.038 18.1997 142.773 17.4645 143.671 16.9855C144.641 16.4725 145.726 16.2141 146.823 16.2345C148.149 16.2118 149.453 16.5808 150.57 17.2952ZM148.787 28.6206C149.521 27.7194 149.888 26.4459 149.888 24.8001C149.888 23.1104 149.521 21.7986 148.787 20.8646C148.053 19.9306 147.03 19.4613 145.717 19.4566C144.384 19.4566 143.356 19.9119 142.631 20.8224C141.907 21.7329 141.546 23.0353 141.547 24.7297C141.547 26.3959 141.909 27.6858 142.631 28.5994C143.354 29.5131 144.383 29.9684 145.717 29.9652C147.024 29.9684 148.047 29.5202 148.787 28.6206Z" fill="white"/>
<path d="M167.969 16.6619C168.143 16.8281 168.279 17.031 168.365 17.2558C168.451 17.4806 168.487 17.7218 168.469 17.9619C168.469 18.5627 168.323 19.0062 168.035 19.2972C167.746 19.5882 167.223 19.7666 166.467 19.8628L165.465 19.9637C164.154 20.0967 163.193 20.541 162.581 21.2966C161.951 22.1052 161.627 23.1097 161.663 24.1338V31.1388C161.681 31.4153 161.636 31.6922 161.532 31.949C161.428 32.2058 161.268 32.4358 161.063 32.622C160.643 32.974 160.108 33.1587 159.561 33.1406C159.019 33.1608 158.489 32.9756 158.078 32.622C157.877 32.4328 157.721 32.2018 157.62 31.9455C157.519 31.6892 157.476 31.4138 157.493 31.1388V18.2318C157.477 17.9639 157.521 17.6957 157.622 17.4471C157.723 17.1985 157.879 16.9758 158.078 16.7956C158.483 16.4567 158.999 16.2788 159.528 16.2958C160.042 16.2706 160.546 16.4437 160.936 16.7792C161.12 16.9575 161.263 17.1737 161.355 17.4127C161.448 17.6518 161.487 17.908 161.471 18.1638V19.499C161.851 18.5689 162.506 17.7771 163.348 17.2298C164.185 16.6962 165.144 16.3859 166.134 16.3286L166.603 16.2958C166.844 16.261 167.089 16.2755 167.324 16.3385C167.559 16.4014 167.778 16.5114 167.969 16.6619Z" fill="white"/>
<path d="M172.989 32.1734C171.743 31.4945 170.726 30.4604 170.069 29.2025C169.389 27.8018 169.035 26.2648 169.035 24.7073C169.035 23.1499 169.389 21.6128 170.069 20.2122C170.731 18.9626 171.747 17.9357 172.989 17.26C174.352 16.581 175.853 16.2275 177.376 16.2275C178.899 16.2275 180.4 16.581 181.763 17.26C183.002 17.9338 184.012 18.9616 184.664 20.2122C185.334 21.6159 185.682 23.1518 185.682 24.7073C185.682 26.2629 185.334 27.7988 184.664 29.2025C184.017 30.4613 183.006 31.4964 181.763 32.1734C180.4 32.8525 178.899 33.2059 177.376 33.2059C175.853 33.2059 174.352 32.8525 172.989 32.1734ZM180.444 28.6369C181.156 27.7483 181.512 26.4357 181.512 24.6991C181.512 22.9876 181.156 21.6812 180.444 20.7801C179.732 19.8789 178.709 19.4284 177.375 19.4284C176.042 19.4284 175.013 19.8789 174.289 20.7801C173.565 21.6812 173.203 22.9876 173.205 24.6991C173.205 26.4357 173.561 27.7483 174.272 28.6369C174.984 29.5256 176.007 29.9699 177.342 29.9699C178.698 29.9699 179.732 29.5256 180.444 28.6369Z" fill="white"/>
<path d="M203.529 31.2392C203.527 31.4855 203.475 31.7288 203.378 31.9549C203.28 32.181 203.139 32.3853 202.961 32.5558C202.792 32.7407 202.586 32.8882 202.356 32.9889C202.127 33.0895 201.879 33.141 201.628 33.1401C201.351 33.1389 201.079 33.0749 200.83 32.953C200.582 32.831 200.364 32.6543 200.194 32.4361L195.501 27.2334L190.807 32.4361C190.629 32.6424 190.409 32.8086 190.162 32.9239C189.915 33.0391 189.646 33.1008 189.373 33.1049C188.88 33.0896 188.412 32.8869 188.063 32.5381C187.714 32.1893 187.511 31.7206 187.496 31.2275C187.497 30.9707 187.55 30.7167 187.653 30.4814C187.756 30.2461 187.906 30.0344 188.094 29.8594L192.966 24.5534L188.35 19.5666C188.162 19.3918 188.011 19.1802 187.908 18.9449C187.805 18.7096 187.751 18.4555 187.75 18.1985C187.747 17.9516 187.797 17.707 187.895 17.4803C187.992 17.2536 188.136 17.0498 188.317 16.882C188.486 16.708 188.689 16.5696 188.912 16.4749C189.135 16.3802 189.375 16.3311 189.618 16.3305C189.891 16.3345 190.16 16.3962 190.407 16.5115C190.655 16.6267 190.875 16.793 191.054 16.9993L195.489 21.8688L199.927 16.9852C200.105 16.779 200.325 16.6127 200.572 16.4975C200.819 16.3822 201.088 16.3205 201.361 16.3164C201.858 16.3164 202.336 16.5142 202.688 16.8663C203.04 17.2184 203.238 17.6959 203.238 18.1938C203.237 18.4508 203.183 18.7049 203.08 18.9402C202.976 19.1755 202.826 19.3872 202.637 19.5619L198.035 24.5652L202.938 29.8711C203.124 30.0467 203.273 30.2587 203.375 30.494C203.477 30.7293 203.529 30.9829 203.529 31.2392Z" fill="white"/>
<path d="M24.4741 48C20.527 48.0009 16.6406 47.0282 13.1592 45.1681C9.67781 43.3081 6.70893 40.6181 4.51558 37.3365C2.32222 34.0549 0.972092 30.2829 0.584806 26.3549C0.19752 22.4268 0.785036 18.4638 2.29529 14.8171C3.80555 11.1703 6.19193 7.95232 9.24302 5.4482C12.2941 2.94408 15.9157 1.23114 19.787 0.461119C23.6583 -0.308898 27.6597 -0.112212 31.4368 1.03374C35.214 2.1797 38.6501 4.23954 41.4409 7.0308C41.6484 7.22416 41.8149 7.45734 41.9303 7.71642C42.0457 7.97549 42.1078 8.25517 42.1128 8.53875C42.1178 8.82234 42.0657 9.10402 41.9594 9.36701C41.8532 9.63 41.6951 9.86891 41.4945 10.0695C41.294 10.27 41.0551 10.4281 40.7921 10.5343C40.5291 10.6406 40.2474 10.6927 39.9638 10.6877C39.6802 10.6827 39.4006 10.6207 39.1415 10.5052C38.8824 10.3898 38.6492 10.2234 38.4559 10.0158C35.6901 7.24915 32.166 5.3648 28.3292 4.60111C24.4924 3.83743 20.5153 4.22872 16.9009 5.72549C13.2866 7.22227 10.1972 9.75729 8.02368 13.01C5.85013 16.2626 4.68999 20.0868 4.68999 23.9988C4.68999 27.9109 5.85013 31.7351 8.02368 34.9877C10.1972 38.2404 13.2866 40.7754 16.9009 42.2722C20.5153 43.769 24.4924 44.1602 28.3292 43.3966C32.166 42.6329 35.6901 40.7485 38.4559 37.9818C38.6505 37.7789 38.8836 37.6168 39.1417 37.5052C39.3997 37.3935 39.6775 37.3345 39.9586 37.3316C40.2398 37.3287 40.5187 37.382 40.779 37.4883C41.0393 37.5946 41.2757 37.7518 41.4745 37.9507C41.6732 38.1496 41.8302 38.3861 41.9363 38.6465C42.0424 38.9069 42.0955 39.1858 42.0923 39.467C42.0892 39.7481 42.03 40.0259 41.9181 40.2838C41.8063 40.5418 41.644 40.7748 41.4409 40.9692C39.2184 43.205 36.5743 44.9777 33.6619 46.1846C30.7495 47.3914 27.6266 48.0085 24.4741 48ZM15.8264 29.7894L18.558 19.5905C18.6189 19.3655 18.6505 19.1336 18.6518 18.9006C18.6533 18.2521 18.4185 17.6254 17.9915 17.1374C17.5645 16.6495 16.9743 16.3337 16.3315 16.2492C15.6886 16.1647 15.0369 16.3171 14.4982 16.6781C13.9596 17.0391 13.5708 17.5839 13.4046 18.2106L10.6706 28.4095C10.5793 28.7473 10.5554 29.0997 10.6004 29.4467C10.6453 29.7937 10.7582 30.1284 10.9325 30.4318C11.1069 30.7352 11.3393 31.0012 11.6165 31.2147C11.8937 31.4282 12.2102 31.585 12.548 31.6762C12.7736 31.7374 13.0065 31.7682 13.2403 31.7677C13.8287 31.7687 14.401 31.5753 14.8683 31.2175C15.3355 30.8598 15.6715 30.3577 15.824 29.7894H15.8264ZM23.519 34.6941L28.8789 14.6882C28.939 14.4623 28.9697 14.2296 28.9704 13.9959C28.9718 13.3475 28.7371 12.7207 28.3101 12.2328C27.883 11.7448 27.2929 11.4291 26.65 11.3445C26.0071 11.26 25.3554 11.4125 24.8168 11.7734C24.2781 12.1344 23.8894 12.6792 23.7231 13.306L21.0408 23.3218L18.3726 33.3118C18.3124 33.5377 18.2816 33.7704 18.2811 34.0041C18.2806 34.5922 18.4742 35.1639 18.8319 35.6307C19.1896 36.0975 19.6914 36.4331 20.2593 36.5855C20.489 36.6466 20.7257 36.6774 20.9634 36.677C21.5472 36.6711 22.113 36.4739 22.5741 36.1158C23.0353 35.7576 23.3663 35.2583 23.5166 34.6941H23.519ZM33.8446 29.7894L36.5785 19.5905C36.6691 19.2515 36.692 18.898 36.646 18.5501C36.6 18.2023 36.4859 17.8669 36.3103 17.5631C36.1347 17.2593 35.9009 16.9931 35.6224 16.7797C35.3439 16.5663 35.026 16.4098 34.687 16.3192C34.348 16.2286 33.9945 16.2056 33.6467 16.2516C33.2988 16.2977 32.9634 16.4117 32.6596 16.5874C32.3559 16.763 32.0897 16.9968 31.8762 17.2753C31.6628 17.5538 31.5063 17.8716 31.4157 18.2106L28.6841 28.4095C28.6228 28.6343 28.592 28.8664 28.5926 29.0995C28.5913 29.6877 28.7847 30.2599 29.1425 30.7268C29.5003 31.1937 30.0025 31.5291 30.5709 31.6809C30.7965 31.7424 31.0293 31.7731 31.2632 31.7724C31.8503 31.7709 32.4206 31.5758 32.8856 31.2173C33.3506 30.8588 33.6844 30.3569 33.8352 29.7894H33.8446Z" fill="white"/>
</g>
<defs>
<clipPath id="clip0_329:108">
<rect width="203.058" height="48" fill="white" transform="translate(0.471191)"/>
</clipPath>
</defs>
</svg>
