<svg width="133" height="40" viewBox="0 0 133 40" fill="none" xmlns="http://www.w3.org/2000/svg">
<g clip-path="url(#clip0_2417_14509)">
<path d="M38.074 24.9757C37.2749 24.5353 36.6246 23.8693 36.2049 23.0617C35.7518 22.1653 35.5264 21.1719 35.5486 20.1686C35.528 19.1514 35.7648 18.1455 36.2372 17.2433C36.6767 16.4149 37.3484 15.7314 38.1708 15.2758C39.0476 14.7996 40.0342 14.5596 41.0328 14.5796C41.6129 14.5813 42.1899 14.6616 42.7482 14.8183C43.2836 14.9614 43.7952 15.1815 44.2668 15.4716C44.732 15.7776 44.9651 16.1616 44.9662 16.6237C44.9796 16.8996 44.8989 17.1719 44.7372 17.3963C44.6679 17.4894 44.5771 17.5646 44.4725 17.6155C44.3679 17.6663 44.2525 17.6914 44.1362 17.6885C43.963 17.6865 43.792 17.6496 43.6335 17.5799C43.4527 17.505 43.2771 17.4181 43.1079 17.3198C42.8142 17.1442 42.5056 16.9947 42.1856 16.8731C41.8636 16.7595 41.5236 16.7045 41.1819 16.7109C40.2781 16.7109 39.5824 17.0046 39.0946 17.5921C38.6068 18.1796 38.365 19.0232 38.3691 20.1227C38.3691 21.209 38.613 22.0458 39.1008 22.6333C39.5885 23.2208 40.2843 23.5146 41.1881 23.5146C41.5193 23.5206 41.8487 23.4651 42.1595 23.3509C42.4857 23.2235 42.803 23.0748 43.1094 22.9057C43.2918 22.7946 43.4819 22.6965 43.6781 22.6119C43.8306 22.5486 43.994 22.5153 44.1592 22.514C44.2749 22.5149 44.3887 22.5432 44.4913 22.5963C44.5939 22.6495 44.6824 22.7262 44.7494 22.82C44.9151 23.0401 44.9998 23.3102 44.9892 23.585C44.9946 23.8096 44.9377 24.0314 44.8248 24.226C44.6904 24.4312 44.5065 24.5995 44.2899 24.7156C43.8032 25.0213 43.2732 25.2524 42.7175 25.401C42.1201 25.5676 41.5025 25.6515 40.8822 25.6504C39.9033 25.6704 38.9359 25.438 38.074 24.9757V24.9757Z" fill="white"/>
<path d="M56.8091 18.9509V24.3058C56.8189 24.4813 56.792 24.6569 56.7301 24.8215C56.6682 24.9861 56.5726 25.1361 56.4494 25.262C56.3151 25.3828 56.158 25.4758 55.9873 25.5356C55.8166 25.5955 55.6357 25.6211 55.455 25.6108C55.0869 25.6303 54.7259 25.5051 54.4497 25.262C54.3232 25.1379 54.2247 24.9885 54.1606 24.8237C54.0964 24.6588 54.0682 24.4823 54.0778 24.3058V18.9509C54.0778 18.1829 53.9241 17.6219 53.6166 17.268C53.3092 16.9141 52.8174 16.7366 52.1411 16.7356C51.3541 16.7356 50.7244 16.9819 50.252 17.4745C49.7771 17.9687 49.5419 18.6281 49.5419 19.4543V24.3043C49.5514 24.4808 49.5232 24.6573 49.4591 24.8221C49.395 24.987 49.2964 25.1364 49.1699 25.2605C48.8938 25.5035 48.5328 25.6288 48.1647 25.6093C47.984 25.6195 47.8031 25.594 47.6323 25.5341C47.4616 25.4742 47.3046 25.3812 47.1702 25.2605C47.0471 25.1345 46.9515 24.9845 46.8896 24.8199C46.8277 24.6553 46.8008 24.4797 46.8106 24.3043V11.2996C46.8032 11.1282 46.8335 10.9573 46.8993 10.7988C46.9652 10.6402 47.065 10.4979 47.1917 10.3816C47.4725 10.1603 47.8191 10.0382 48.1772 10.0343C48.5352 10.0304 48.8845 10.1451 49.1699 10.3602C49.2929 10.4724 49.3895 10.6103 49.4527 10.764C49.5159 10.9176 49.5443 11.0833 49.5358 11.2491V16.3164C49.8892 15.7586 50.3924 15.3102 50.9883 15.022C51.6325 14.7166 52.3391 14.5642 53.0525 14.5768C55.5569 14.5788 56.8091 16.0369 56.8091 18.9509Z" fill="white"/>
<path d="M67.527 15.686C68.2443 16.4173 68.6029 17.5301 68.6029 19.0244V24.3303C68.6116 24.499 68.585 24.6676 68.525 24.8256C68.4649 24.9836 68.3727 25.1275 68.254 25.2482C68.1241 25.3651 67.9721 25.4552 67.8069 25.5132C67.6418 25.5712 67.4667 25.5961 67.2918 25.5864C67.1226 25.5919 66.9539 25.5639 66.7956 25.504C66.6373 25.4442 66.4925 25.3536 66.3696 25.2375C66.2485 25.1181 66.1539 24.9747 66.0919 24.8165C66.03 24.6584 66.002 24.4891 66.0099 24.3196V23.8407C65.7711 24.3955 65.3616 24.8605 64.8402 25.1687C64.2814 25.494 63.643 25.6592 62.9958 25.646C62.3224 25.6546 61.6564 25.5058 61.0514 25.2115C60.4908 24.9435 60.0129 24.5303 59.6681 24.0151C59.3343 23.5121 59.1593 22.9212 59.1654 22.3184C59.1654 21.5361 59.3658 20.92 59.7664 20.4702C60.1671 20.0204 60.8188 19.694 61.7216 19.491C62.6253 19.287 63.8709 19.185 65.4581 19.185H66.0053V18.6847C66.0053 17.9707 65.8516 17.4526 65.5442 17.1303C65.2368 16.808 64.7414 16.6448 64.0579 16.6407C63.622 16.6431 63.1886 16.7054 62.7698 16.8258C62.3364 16.9533 61.8189 17.1344 61.2174 17.369C60.8378 17.5587 60.5611 17.652 60.3859 17.652C60.2641 17.6556 60.1431 17.632 60.0317 17.583C59.9203 17.534 59.8212 17.4609 59.7418 17.369C59.5674 17.163 59.4774 16.8991 59.4898 16.63C59.4847 16.4024 59.5496 16.1788 59.6757 15.9889C59.8386 15.7739 60.0489 15.5991 60.2906 15.4779C60.8663 15.1792 61.48 14.9594 62.115 14.8246C62.7997 14.668 63.4998 14.588 64.2024 14.586C65.6964 14.5819 66.8046 14.9486 67.527 15.686ZM65.3198 22.9717C65.7885 22.4586 66.0359 21.7827 66.0084 21.0898V20.6308H65.6149C64.8549 20.6171 64.095 20.6605 63.3416 20.7609C62.8036 20.8481 62.4194 20.9996 62.1842 21.2199C62.0652 21.3351 61.9722 21.4742 61.9115 21.628C61.8508 21.7818 61.8238 21.9468 61.8322 22.1118C61.8257 22.3263 61.8662 22.5397 61.9508 22.7371C62.0355 22.9344 62.1624 23.1111 62.3225 23.2547C62.6544 23.5526 63.0886 23.712 63.5353 23.6999C63.8682 23.7109 64.1997 23.6509 64.5075 23.524C64.8152 23.3971 65.0922 23.2062 65.3198 22.964V22.9717Z" fill="white"/>
<path d="M71.5572 12.2845C71.413 12.15 71.2995 11.9863 71.2242 11.8045C71.1489 11.6227 71.1136 11.4269 71.1207 11.2303C71.1125 11.035 71.1473 10.8403 71.2227 10.6598C71.2981 10.4792 71.4123 10.3173 71.5572 10.1854C71.8954 9.9312 72.3077 9.7937 72.7315 9.7937C73.1553 9.7937 73.5676 9.9312 73.9058 10.1854C74.0539 10.3154 74.171 10.4767 74.2487 10.6575C74.3263 10.8382 74.3625 11.0339 74.3546 11.2303C74.3622 11.4271 74.327 11.6232 74.2514 11.8051C74.1758 11.987 74.0616 12.1506 73.9166 12.2845C73.5792 12.5454 73.1641 12.687 72.7369 12.687C72.3097 12.687 71.8946 12.5454 71.5572 12.2845V12.2845ZM71.7647 25.2677C71.6335 25.1443 71.5313 24.9938 71.4651 24.8267C71.399 24.6596 71.3706 24.48 71.382 24.3008V15.9059C71.3698 15.7279 71.3979 15.5495 71.4641 15.3838C71.5303 15.218 71.6331 15.0692 71.7647 14.9481C72.0379 14.7245 72.3842 14.6085 72.7377 14.6223C73.0938 14.6097 73.4425 14.7254 73.7198 14.9481C73.8544 15.0674 73.9598 15.2156 74.028 15.3816C74.0962 15.5476 74.1254 15.727 74.1133 15.9059V24.3008C74.125 24.481 74.0957 24.6616 74.0276 24.829C73.9594 24.9964 73.8542 25.1463 73.7198 25.2677C73.4458 25.4975 73.0958 25.618 72.7377 25.6058C72.3822 25.6189 72.0348 25.4982 71.7647 25.2677V25.2677Z" fill="white"/>
<path d="M85.9995 15.6675C86.6266 16.3917 86.9402 17.4861 86.9402 18.9508V24.3057C86.9497 24.4813 86.9225 24.6569 86.8603 24.8215C86.7981 24.9861 86.7023 25.136 86.579 25.2619C86.4447 25.3828 86.2876 25.4759 86.1169 25.5357C85.9462 25.5956 85.7652 25.6211 85.5845 25.6107C85.2164 25.6302 84.8554 25.5049 84.5792 25.2619C84.453 25.1377 84.3548 24.9882 84.2909 24.8234C84.2271 24.6585 84.1991 24.4821 84.2088 24.3057V19.1038C84.2088 18.2776 84.052 17.6764 83.7385 17.3C83.4249 16.9236 82.9336 16.7349 82.2644 16.7339C81.4775 16.7339 80.8473 16.9802 80.3738 17.4729C79.9004 17.9655 79.6632 18.6249 79.6622 19.4511V24.3011C79.6717 24.4776 79.6435 24.6541 79.5794 24.819C79.5153 24.9838 79.4167 25.1332 79.2902 25.2573C79.0141 25.5003 78.6531 25.6256 78.285 25.6061C78.1045 25.6165 77.9237 25.591 77.7533 25.5311C77.5828 25.4712 77.426 25.3781 77.292 25.2573C77.1683 25.1317 77.0724 24.9817 77.0102 24.8171C76.948 24.6524 76.9209 24.4767 76.9308 24.3011V15.8863C76.9229 15.7157 76.9521 15.5454 77.0162 15.387C77.0804 15.2285 77.1782 15.0858 77.3028 14.9683C77.5789 14.7253 77.9399 14.6 78.308 14.6195C78.6477 14.6084 78.9784 14.7291 79.2303 14.9561C79.3495 15.0693 79.4432 15.2064 79.5052 15.3583C79.5672 15.5102 79.5961 15.6735 79.5899 15.8374V16.4249C79.9413 15.8402 80.4483 15.3637 81.0548 15.0479C81.6969 14.7225 82.4093 14.5587 83.1298 14.5706C84.4168 14.5767 85.3734 14.9423 85.9995 15.6675Z" fill="white"/>
<path d="M98.3112 15.276C99.052 15.7576 99.6388 16.4404 100.002 17.2435C100.418 18.1622 100.623 19.1614 100.603 20.1688C100.626 21.1661 100.42 22.1554 100.002 23.062C99.6456 23.852 99.0621 24.5194 98.3252 24.9798C97.5883 25.4402 96.7309 25.6731 95.8611 25.6491C95.1544 25.6612 94.4559 25.4971 93.8291 25.1718C93.2515 24.8704 92.7738 24.4092 92.4535 23.8438V28.2807C92.4617 28.4475 92.4326 28.614 92.3683 28.7683C92.3039 28.9225 92.206 29.0607 92.0815 29.1726C91.806 29.3997 91.4551 29.5159 91.0978 29.4985C90.7343 29.5141 90.3787 29.3897 90.1048 29.1512C89.9778 29.0351 89.8777 28.8928 89.8116 28.7343C89.7455 28.5757 89.715 28.4047 89.7221 28.2332V15.9018C89.7135 15.7296 89.7411 15.5576 89.803 15.3967C89.865 15.2357 89.9599 15.0894 90.0818 14.967C90.2126 14.8475 90.366 14.7551 90.5331 14.6953C90.7001 14.6354 90.8774 14.6092 91.0547 14.6181C91.4158 14.602 91.7689 14.7272 92.0385 14.967C92.1631 15.0878 92.2606 15.2336 92.3245 15.3948C92.3884 15.5559 92.4171 15.7287 92.4089 15.9018V16.451C92.7227 15.8657 93.2042 15.3864 93.7922 15.0741C94.4276 14.7396 95.1379 14.5712 95.8565 14.5845C96.7253 14.5697 97.5791 14.8102 98.3112 15.276V15.276ZM97.143 22.6596C97.6236 22.0721 97.8639 21.2418 97.8639 20.1688C97.8639 19.0672 97.6236 18.212 97.143 17.6031C96.6624 16.9942 95.9923 16.6882 95.1326 16.6851C94.2595 16.6851 93.5858 16.9819 93.1113 17.5755C92.6369 18.1692 92.4002 19.0183 92.4012 20.1229C92.4012 21.2092 92.6379 22.0502 93.1113 22.6458C93.5847 23.2415 94.2585 23.5383 95.1326 23.5363C95.9882 23.5383 96.6583 23.2461 97.143 22.6596Z" fill="white"/>
<path d="M109.707 14.8629C109.821 14.9713 109.91 15.1035 109.966 15.2501C110.023 15.3966 110.046 15.5539 110.034 15.7105C110.034 16.1021 109.939 16.3913 109.75 16.581C109.561 16.7707 109.218 16.887 108.723 16.9497L108.067 17.0155C107.208 17.1022 106.578 17.3919 106.178 17.8845C105.765 18.4117 105.553 19.0666 105.577 19.7343V24.3012C105.588 24.4814 105.559 24.662 105.491 24.8294C105.423 24.9968 105.318 25.1468 105.183 25.2681C104.909 25.4976 104.558 25.618 104.2 25.6062C103.845 25.6194 103.498 25.4986 103.228 25.2681C103.097 25.1448 102.995 24.9942 102.929 24.8271C102.862 24.66 102.834 24.4804 102.845 24.3012V15.8864C102.835 15.7117 102.863 15.5369 102.93 15.3748C102.996 15.2127 103.098 15.0675 103.228 14.9501C103.494 14.7291 103.832 14.6131 104.178 14.6242C104.515 14.6078 104.845 14.7206 105.1 14.9394C105.221 15.0556 105.315 15.1966 105.375 15.3524C105.436 15.5083 105.461 15.6753 105.451 15.842V16.7126C105.7 16.1062 106.129 15.59 106.68 15.2331C107.228 14.8852 107.856 14.683 108.505 14.6456L108.812 14.6242C108.97 14.6015 109.13 14.611 109.284 14.652C109.438 14.6931 109.582 14.7648 109.707 14.8629V14.8629Z" fill="white"/>
<path d="M112.995 24.9758C112.179 24.5332 111.513 23.859 111.083 23.0389C110.637 22.1257 110.405 21.1236 110.405 20.1083C110.405 19.0929 110.637 18.0908 111.083 17.1776C111.516 16.3629 112.181 15.6935 112.995 15.2529C113.887 14.8103 114.871 14.5798 115.868 14.5798C116.866 14.5798 117.849 14.8103 118.742 15.2529C119.553 15.6922 120.215 16.3623 120.642 17.1776C121.081 18.0928 121.309 19.0941 121.309 20.1083C121.309 21.1224 121.081 22.1238 120.642 23.0389C120.218 23.8596 119.556 24.5344 118.742 24.9758C117.849 25.4185 116.866 25.6489 115.868 25.6489C114.871 25.6489 113.887 25.4185 112.995 24.9758V24.9758ZM117.878 22.6702C118.344 22.0908 118.577 21.2351 118.577 20.1029C118.577 18.9871 118.344 18.1354 117.878 17.5479C117.412 16.9604 116.742 16.6666 115.868 16.6666C114.994 16.6666 114.321 16.9604 113.846 17.5479C113.372 18.1354 113.135 18.9871 113.136 20.1029C113.136 21.2351 113.369 22.0908 113.836 22.6702C114.302 23.2495 114.972 23.5392 115.846 23.5392C116.734 23.5392 117.412 23.2495 117.878 22.6702V22.6702Z" fill="white"/>
<path d="M132.998 24.3666C132.997 24.5271 132.963 24.6857 132.899 24.8331C132.835 24.9805 132.742 25.1137 132.626 25.2249C132.515 25.3454 132.38 25.4416 132.23 25.5072C132.08 25.5728 131.917 25.6064 131.753 25.6058C131.572 25.6051 131.393 25.5633 131.23 25.4838C131.068 25.4043 130.925 25.2891 130.814 25.1468L127.74 21.7549L124.666 25.1468C124.549 25.2813 124.405 25.3897 124.243 25.4648C124.081 25.54 123.905 25.5802 123.726 25.5829C123.404 25.5729 123.097 25.4408 122.868 25.2133C122.64 24.9859 122.507 24.6804 122.497 24.3589C122.497 24.1915 122.532 24.0259 122.6 23.8725C122.667 23.7191 122.766 23.581 122.889 23.467L126.08 20.0077L123.056 16.7566C122.933 16.6426 122.834 16.5047 122.767 16.3512C122.699 16.1978 122.664 16.0322 122.663 15.8646C122.661 15.7036 122.694 15.5442 122.758 15.3964C122.822 15.2486 122.916 15.1157 123.035 15.0063C123.145 14.8929 123.278 14.8026 123.424 14.7409C123.57 14.6791 123.727 14.6471 123.886 14.6468C124.065 14.6494 124.241 14.6896 124.403 14.7647C124.566 14.8399 124.71 14.9483 124.827 15.0828L127.732 18.2575L130.639 15.0736C130.755 14.9391 130.899 14.8308 131.061 14.7556C131.223 14.6805 131.399 14.6402 131.578 14.6376C131.904 14.6376 132.217 14.7665 132.447 14.9961C132.678 15.2256 132.807 15.5369 132.807 15.8615C132.807 16.0291 132.771 16.1947 132.704 16.3482C132.636 16.5016 132.537 16.6396 132.414 16.7535L129.4 20.0154L132.611 23.4746C132.733 23.5891 132.83 23.7273 132.897 23.8807C132.964 24.0341 132.998 24.1994 132.998 24.3666Z" fill="white"/>
<path d="M15.7208 35.2938C13.1356 35.2943 10.5901 34.6601 8.30984 33.4475C6.02962 32.2348 4.08507 30.4811 2.64847 28.3416C1.21187 26.2022 0.327565 23.7431 0.0739013 21.1821C-0.179763 18.6212 0.205048 16.0375 1.19423 13.66C2.18342 11.2825 3.74645 9.18454 5.74484 7.55197C7.74324 5.9194 10.1153 4.80264 12.6509 4.30063C15.1865 3.79861 17.8074 3.92684 20.2813 4.67395C22.7552 5.42106 25.0058 6.76398 26.8338 8.58375C26.9697 8.70981 27.0787 8.86183 27.1543 9.03074C27.2299 9.19965 27.2706 9.38198 27.2738 9.56687C27.2771 9.75175 27.2429 9.9354 27.1734 10.1069C27.1038 10.2783 27.0002 10.4341 26.8689 10.5648C26.7375 10.6956 26.581 10.7986 26.4088 10.8679C26.2365 10.9372 26.052 10.9712 25.8663 10.9679C25.6806 10.9646 25.4974 10.9242 25.3277 10.8489C25.158 10.7737 25.0053 10.6651 24.8786 10.5299C23.0671 8.7261 20.7589 7.49759 18.2459 6.99971C15.7329 6.50182 13.128 6.75692 10.7606 7.73275C8.39327 8.70858 6.36983 10.3613 4.9462 12.4819C3.52257 14.6025 2.76271 17.0956 2.76271 19.6461C2.76271 22.1966 3.52257 24.6898 4.9462 26.8103C6.36983 28.9309 8.39327 30.5836 10.7606 31.5595C13.128 32.5353 15.7329 32.7904 18.2459 32.2925C20.7589 31.7946 23.0671 30.5661 24.8786 28.7624C25.0061 28.63 25.1588 28.5244 25.3278 28.4516C25.4968 28.3788 25.6787 28.3403 25.8629 28.3384C26.047 28.3366 26.2297 28.3713 26.4002 28.4406C26.5707 28.5099 26.7256 28.6124 26.8557 28.7421C26.9859 28.8717 27.0887 29.026 27.1582 29.1957C27.2277 29.3655 27.2625 29.5473 27.2604 29.7306C27.2584 29.9139 27.2196 30.095 27.1463 30.2631C27.0731 30.4313 26.9668 30.5832 26.8338 30.71C25.378 32.1677 23.6463 33.3233 21.7387 34.1102C19.8311 34.897 17.7857 35.2993 15.7208 35.2938V35.2938ZM10.0568 23.4213L11.8459 16.7721C11.8858 16.6254 11.9065 16.4742 11.9074 16.3223C11.9084 15.8995 11.7546 15.4909 11.4749 15.1728C11.1952 14.8547 10.8087 14.6488 10.3876 14.5937C9.96653 14.5386 9.5397 14.638 9.18689 14.8733C8.83408 15.1087 8.57944 15.4639 8.47056 15.8725L6.67988 22.5217C6.62008 22.7419 6.60445 22.9716 6.63389 23.1979C6.66332 23.4241 6.73725 23.6423 6.85144 23.8401C6.96563 24.0379 7.11785 24.2113 7.2994 24.3505C7.48095 24.4897 7.68827 24.5919 7.90953 24.6514C8.05733 24.6913 8.20982 24.7113 8.36296 24.711C8.74839 24.7117 9.12323 24.5856 9.42926 24.3524C9.73528 24.1191 9.95535 23.7918 10.0553 23.4213H10.0568ZM15.0953 26.6189L18.6059 13.576C18.6453 13.4287 18.6654 13.2771 18.6658 13.1247C18.6668 12.7019 18.513 12.2933 18.2333 11.9752C17.9536 11.6571 17.5671 11.4512 17.1461 11.3961C16.725 11.341 16.2981 11.4404 15.9453 11.6757C15.5925 11.9111 15.3379 12.2662 15.229 12.6749L13.4721 19.2047L11.7245 25.7178C11.6851 25.865 11.6649 26.0167 11.6646 26.1691C11.6643 26.5525 11.7911 26.9252 12.0254 27.2295C12.2597 27.5338 12.5883 27.7527 12.9603 27.852C13.1107 27.8919 13.2657 27.9119 13.4214 27.9117C13.8038 27.9078 14.1744 27.7793 14.4764 27.5458C14.7785 27.3123 14.9953 26.9867 15.0937 26.6189H15.0953ZM21.8583 23.4213L23.649 16.7721C23.7083 16.5511 23.7234 16.3206 23.6932 16.0938C23.6631 15.867 23.5883 15.6484 23.4733 15.4503C23.3583 15.2523 23.2052 15.0787 23.0227 14.9396C22.8403 14.8004 22.6322 14.6984 22.4101 14.6393C22.1881 14.5803 21.9565 14.5653 21.7287 14.5953C21.5008 14.6253 21.2812 14.6997 21.0822 14.8142C20.8832 14.9287 20.7089 15.0811 20.5691 15.2627C20.4293 15.4443 20.3268 15.6515 20.2675 15.8725L18.4783 22.5217C18.4382 22.6682 18.418 22.8195 18.4184 22.9715C18.4176 23.355 18.5442 23.728 18.7786 24.0324C19.0129 24.3368 19.3419 24.5555 19.7141 24.6544C19.8619 24.6945 20.0144 24.7146 20.1676 24.7141C20.5521 24.7131 20.9257 24.5859 21.2302 24.3522C21.5348 24.1185 21.7534 23.7912 21.8522 23.4213H21.8583Z" fill="white"/>
</g>
<defs>
<clipPath id="clip0_2417_14509">
<rect width="133" height="40" fill="white"/>
</clipPath>
</defs>
</svg>
